<?xml version="1.0" encoding="UTF-8"?>
<svg id="Layer_1" data-name="Layer 1" xmlns="http://www.w3.org/2000/svg" viewBox="0 0 698.91 173.59">
  <defs>
    <style>
      .cls-1 {
        fill: #fff;
      }
    </style>
  </defs>
  <g>
    <path class="cls-1" d="M17.3,83.29H5.02V27.13h12.27v56.17Z"/>
    <path class="cls-1" d="M53.9,56.43c0-3.31-1.79-4.54-4.81-4.54h-8.18c-2.44,0-4.23,1.22-4.23,4.54v26.86h-11.13v-31.18c0-7.34,5.46-10.58,12.27-10.58h14.93c6.82,0,12.27,3.38,12.27,10.73v31.03h-11.12v-26.86Z"/>
    <path class="cls-1" d="M98.33,78.39c-1.51,3.96-4.02,5.69-7.97,5.69s-6.75-1.73-8.25-5.76l-13.85-36.79h11.84l10.26,25.99,10.19-25.99h11.84l-14.07,36.87Z"/>
    <path class="cls-1" d="M154.24,83.29h-26.13c-6.82,0-12.13-3.96-12.13-11.45v-19.66c0-7.34,5.46-10.66,12.27-10.66h15.15c6.82,0,11.92,3.6,11.92,10.94v8.64l-28.07,9.86c0,2.02,2.37,2.02,5.89,2.02h21.1v10.3ZM127.04,60.61l17.15-6.12c0-1.58-.29-2.59-3.52-2.59h-8.33c-4.74,0-5.31,2.3-5.31,5.26v3.46Z"/>
    <path class="cls-1" d="M189.76,56.43c0-3.31-1.79-4.54-4.81-4.54h-8.18c-2.44,0-4.24,1.22-4.24,4.54v26.86h-11.12v-31.18c0-7.34,5.46-10.58,12.27-10.58h14.93c6.82,0,12.27,3.38,12.27,10.73v31.03h-11.13v-26.86Z"/>
    <path class="cls-1" d="M219.55,27.13v14.4h9.33v10.3h-9.33v31.47h-11.12V27.13h11.12Z"/>
    <path class="cls-1" d="M272.02,72.27c0,7.34-5.46,11.02-12.27,11.02h-15c-6.82,0-12.27-3.96-12.27-11.3v-19.59c0-7.34,5.46-10.87,12.27-10.87h15c6.82,0,12.27,3.17,12.27,10.51v20.23ZM243.66,68.46c0,3.24,1.79,4.54,4.81,4.54h8.18c2.44,0,4.31-1.3,4.31-4.54v-12.02c0-3.31-1.87-4.54-4.31-4.54h-8.18c-3.01,0-4.81,1.22-4.81,4.54v12.02Z"/>
    <path class="cls-1" d="M290.67,83.29h-11.13v-30.6c0-7.34,5.46-11.16,12.27-11.16h8.04v10.37h-4.38c-3.02,0-4.81,1.22-4.81,4.54v26.86Z"/>
    <path class="cls-1" d="M332.37,72.92v-31.39h11.13v46.95c0,7.34-5.46,10.66-12.27,10.66h-26.7v-10.37h23.62c2.44,0,4.23-1.22,4.23-4.54v-.94h-16.29c-6.82,0-12.27-3.31-12.27-10.66v-31.11h11.12v28.44c0,2.23,2.08,2.95,4.02,2.95h13.42Z"/>
    <path class="cls-1" d="M417.85,33.75c2.01-5.4,6.17-7.27,10.19-7.27,4.74,0,9.33,2.74,9.33,7.99v48.82h-12.27v-34.2l-10.55,28.37c-2.08,5.54-4.45,6.55-7.61,6.55s-5.53-1.01-7.61-6.55l-10.55-28.37v34.2h-12.27v-48.82c0-5.33,4.45-7.99,9.33-7.99,3.95,0,8.18,1.73,10.12,7.06l10.98,29.74,10.91-29.52Z"/>
    <path class="cls-1" d="M445.27,72.13v-4.61c0-7.34,5.46-10.66,12.27-10.66h16.29v-.43c0-3.31-1.79-4.54-4.23-4.54h-23.62v-10.37h26.7c6.82,0,12.27,3.31,12.27,10.66v19.95c0,7.34-5.46,11.16-12.27,11.16h-15.14c-6.82,0-12.27-3.82-12.27-11.16ZM473.83,68.46v-1.22h-13.42c-1.94,0-4.02.72-4.02,2.95s2.08,2.81,4.02,2.81h9.19c2.44,0,4.23-1.3,4.23-4.54Z"/>
    <path class="cls-1" d="M520.13,56.43c0-3.31-1.79-4.54-4.81-4.54h-8.18c-2.44,0-4.24,1.22-4.24,4.54v26.86h-11.13v-31.18c0-7.34,5.46-10.58,12.27-10.58h14.93c6.82,0,12.27,3.38,12.27,10.73v31.03h-11.13v-26.86Z"/>
    <path class="cls-1" d="M537.35,72.13v-4.61c0-7.34,5.46-10.66,12.27-10.66h16.29v-.43c0-3.31-1.79-4.54-4.23-4.54h-23.62v-10.37h26.7c6.82,0,12.27,3.31,12.27,10.66v19.95c0,7.34-5.46,11.16-12.27,11.16h-15.14c-6.82,0-12.27-3.82-12.27-11.16ZM565.92,68.46v-1.22h-13.42c-1.94,0-4.02.72-4.02,2.95s2.08,2.81,4.02,2.81h9.19c2.44,0,4.23-1.3,4.23-4.54Z"/>
    <path class="cls-1" d="M611.63,41.53c6.82,0,12.27,3.38,12.27,10.73v36.22c0,7.34-5.46,10.66-12.27,10.66h-26.7v-10.37h23.61c2.44,0,4.24-1.22,4.24-4.54v-.94h-16.29c-6.82,0-12.27-3.67-12.27-11.02v-19.59c0-7.34,5.46-11.16,12.27-11.16h15.15ZM599.36,51.82c-1.79,0-4.02,1.3-4.02,4.54v13.61c0,2.23,2.08,2.95,4.02,2.95h13.42v-16.56c0-3.24-1.79-4.54-4.24-4.54h-9.19Z"/>
    <path class="cls-1" d="M669.34,83.29h-26.13c-6.82,0-12.13-3.96-12.13-11.45v-19.66c0-7.34,5.46-10.66,12.27-10.66h15.15c6.82,0,11.92,3.6,11.92,10.94v8.64l-28.06,9.86c0,2.02,2.37,2.02,5.88,2.02h21.1v10.3ZM642.14,60.61l17.16-6.12c0-1.58-.29-2.59-3.52-2.59h-8.33c-4.74,0-5.31,2.3-5.31,5.26v3.46Z"/>
    <path class="cls-1" d="M688.36,83.29h-11.12v-30.6c0-7.34,5.46-11.16,12.27-11.16h8.04v10.37h-4.38c-3.01,0-4.81,1.22-4.81,4.54v26.86Z"/>
  </g>
  <g>
    <g>
      <path class="cls-1" d="M407.24,147.57c-.92-.97-2.08-1.49-4.21-1.49-1.72,0-3.09.35-3.09,1.36,0,.84.98,1,3.77,1.27,2.87.26,5.1.47,5.1,2.65,0,2.32-2.53,2.99-5.11,2.99-3.06,0-4.8-.96-5.76-2.27l1.12-.67c1,1.07,2.28,1.74,4.67,1.74,1.87,0,3.26-.41,3.26-1.61,0-1.04-1.09-1.12-3.96-1.39-2.82-.26-4.88-.58-4.88-2.53,0-2.12,2.47-2.74,4.92-2.74,2.95,0,4.44.91,5.29,2.03l-1.13.66Z"/>
      <path class="cls-1" d="M412.85,149.62c0-2.56,2-4.74,6.09-4.74s6.1,2.18,6.1,4.74-2.02,4.73-6.1,4.73-6.09-2.17-6.09-4.73ZM423.26,149.62c0-2.01-1.56-3.52-4.32-3.52s-4.3,1.51-4.3,3.52,1.55,3.51,4.3,3.51,4.32-1.5,4.32-3.51Z"/>
      <path class="cls-1" d="M429.82,154.06v-8.87h8.57v1.22h-6.91v2.79h4.33v1.23h-4.33v3.63h-1.66Z"/>
      <path class="cls-1" d="M445.76,154.06v-7.63h-4.21v-1.24h10.07v1.24h-4.21v7.63h-1.66Z"/>
      <path class="cls-1" d="M454.76,145.19h1.82l2.67,6.59,2.59-6.59h1.19l2.64,6.59,2.67-6.59h1.74l-3.81,8.87h-1.13l-2.73-6.76-2.72,6.76h-1.14l-3.8-8.87Z"/>
      <path class="cls-1" d="M474.07,154.06h-1.71l4.9-8.87h1.48l4.88,8.87h-1.95l-1.13-2.13h-5.33l-1.13,2.13ZM475.88,150.65h3.97l-1.97-3.73-2,3.73Z"/>
      <path class="cls-1" d="M498.23,154.06c-.46.14-.93.24-1.5.24-3.65,0-2.18-4.13-5.29-4.13h-2.06v3.9h-1.66v-8.87h6.5c1.9,0,3.42.82,3.42,2.47s-1.46,2.48-3.45,2.48v.02c1.3.83,1.17,2.79,2.84,2.79.32,0,.81-.07,1.19-.15v1.25ZM489.38,146.38v2.59h4.78c.92,0,1.79-.32,1.79-1.3s-.87-1.29-1.79-1.29h-4.78Z"/>
      <path class="cls-1" d="M502.9,154.06v-8.87h8.57v1.22h-6.91v2.49h4.33v1.25h-4.33v2.69h7.47v1.22h-9.13Z"/>
      <path class="cls-1" d="M518.72,153.76c0,1.44-1.04,2.67-2.49,2.67v-.79c.58-.09,1.31-.58,1.31-1.58h-1.27v-1.51h2.44v1.22Z"/>
      <path class="cls-1" d="M530.77,145.19h1.66v7.62h6.52v1.25h-8.19v-8.87Z"/>
      <path class="cls-1" d="M543.26,145.19h1.66v7.62h6.52v1.25h-8.19v-8.87Z"/>
      <path class="cls-1" d="M566.11,152.19c-.64.73-2.17,2.16-5.42,2.16-3.81,0-6.05-1.96-6.05-4.74s2.11-4.73,6.09-4.73c3.31,0,4.67,1.4,5.22,1.95l-1.22.77c-.96-.79-2-1.5-4.03-1.5-2.95,0-4.29,1.62-4.29,3.5s1.48,3.54,4.35,3.54c2.12,0,3.23-.86,4.12-1.74l1.23.79Z"/>
    </g>
    <g>
      <polygon class="cls-1" points="148.79 146.74 148.79 132.71 160.44 138.72 181.27 127.82 187.74 124.49 187.75 138.46 167.51 149.39 160.44 153.12 148.79 146.74"/>
      <polygon class="cls-1" points="145.47 173.59 132.66 166.51 132.66 124.49 145.47 131.09 145.47 173.59"/>
      <path class="cls-1" d="M173.91,173.59v-22.62c4.52-2.58,8.93-4.85,13.83-7.19v22.73s-13.83,7.08-13.83,7.08Z"/>
    </g>
    <g>
      <path class="cls-1" d="M223.07,158.47l-1.69-6.48c-.27-1.11-.47-2.28-.47-2.92-.49,1.01-1.01,1.99-2.33,4.27l-1.96,3.36c-1.01,1.79-1.84,2.06-3.22,2.06s-2.26-.25-3.29-2.06l-2.19-3.93c-1.25-2.21-1.65-2.95-2.01-3.71-.12.79-.32,1.77-.59,2.8l-1.65,6.61h-5.57l3.98-14.17c.49-1.72,1.74-2.55,3.19-2.55s2.41.76,3.09,1.94l2.7,4.52c1.52,2.53,2.04,3.41,2.43,4.22.39-.81.91-1.67,2.41-4.2l2.7-4.54c.66-1.13,1.62-1.94,3.12-1.94,1.4,0,2.68.83,3.17,2.55,1.3,4.71,2.55,9.45,3.86,14.17h-5.67Z"/>
      <path class="cls-1" d="M243.82,158.74c-8.15,0-12.25-2.63-12.25-8.5s4.1-8.47,12.25-8.47,12.28,2.6,12.28,8.47-4.13,8.5-12.28,8.5ZM243.82,146.56c-4.91,0-6.58.42-6.58,3.68s1.67,3.71,6.58,3.71,6.61-.47,6.61-3.71-1.67-3.68-6.61-3.68Z"/>
      <path class="cls-1" d="M261.15,158.47v-10.24h5.7v5.53h5.5c2.58,0,4.42-.96,4.42-3.66,0-2.23-1.94-3.27-4.42-3.27h-11.2l3.61-4.79h7.59c5.84,0,10.07,3.31,10.07,8.05s-4.27,8.37-10.07,8.37h-11.2Z"/>
      <path class="cls-1" d="M303.46,142.04h5.72v9.26c0,4.96-3.46,7.44-10.44,7.44-8.03,0-11.49-2.48-11.49-7.44v-9.26h5.67v9.26c0,2.14.71,2.73,5.82,2.73,3.46,0,4.71-.76,4.71-2.73v-9.26Z"/>
      <path class="cls-1" d="M314.56,158.47v-16.43h5.67v11.71h12.48l-3.66,4.71h-14.49Z"/>
      <path class="cls-1" d="M352.87,142.04h5.72v9.26c0,4.96-3.46,7.44-10.44,7.44-8.03,0-11.49-2.48-11.49-7.44v-9.26h5.67v9.26c0,2.14.71,2.73,5.82,2.73,3.46,0,4.71-.76,4.71-2.73v-9.26Z"/>
      <path class="cls-1" d="M362.98,158.47l3.66-4.71h12.4c.74,0,1.15-.27,1.15-.86s-.42-.86-1.2-.86h-9.28c-4.25,0-6.19-1.99-6.19-4.76,0-3.32,2.06-5.23,7.2-5.23h14.49l-3.66,4.79h-11.37c-.76,0-1.15.2-1.15.79s.39.81,1.15.81h9.33c3.98,0,6.16,1.55,6.16,4.54,0,3.39-1.62,5.5-6.7,5.5h-15.99Z"/>
    </g>
    <g>
      <path class="cls-1" d="M310.75,120.67h6.69c2.32,0,3.44.99,3.44,2.36,0,.84-.45,1.71-1.49,1.95v.03c1.13.2,1.74.92,1.74,2.02,0,1.51-1.1,2.52-3.61,2.52h-6.76v-8.87ZM312.41,124.39h5.11c1.15,0,1.62-.55,1.62-1.22,0-.78-.63-1.28-1.79-1.28h-4.95v2.49ZM312.41,125.62v2.69h4.94c1.22,0,1.96-.45,1.96-1.41s-.75-1.28-1.77-1.28h-5.12Z"/>
      <path class="cls-1" d="M323.88,125.91v-5.24h1.66v5.11c0,2.07,1.34,2.77,3.46,2.77s3.44-.7,3.44-2.77v-5.11h1.58v5.24c0,3.32-2.62,3.92-5.04,3.92s-5.1-.6-5.1-3.92Z"/>
      <path class="cls-1" d="M337.39,129.54v-8.87h1.66v8.87h-1.66Z"/>
      <path class="cls-1" d="M342.65,120.67h1.66v7.62h6.52v1.25h-8.19v-8.87Z"/>
      <path class="cls-1" d="M354.26,129.54v-7.63h-4.21v-1.24h10.07v1.24h-4.21v7.63h-1.66Z"/>
      <path class="cls-1" d="M366.87,120.67h6.69c2.32,0,3.44.99,3.44,2.36,0,.84-.45,1.71-1.49,1.95v.03c1.13.2,1.74.92,1.74,2.02,0,1.51-1.1,2.52-3.61,2.52h-6.76v-8.87ZM368.53,124.39h5.11c1.15,0,1.62-.55,1.62-1.22,0-.78-.63-1.28-1.79-1.28h-4.95v2.49ZM368.53,125.62v2.69h4.94c1.22,0,1.96-.45,1.96-1.41s-.75-1.28-1.77-1.28h-5.12Z"/>
      <path class="cls-1" d="M383.11,126.1l-4.83-5.43h2.26l3.54,4.16,3.52-4.16h2.01l-4.83,5.45v3.42h-1.67v-3.44Z"/>
    </g>
  </g>
</svg>