<?xml version="1.0" encoding="UTF-8"?>
<svg id="Layer_1" data-name="Layer 1" xmlns="http://www.w3.org/2000/svg" viewBox="0 0 895.41 180.07">
  <defs>
    <style>
      .cls-1, .cls-2, .cls-3, .cls-4 {
        stroke: #000;
      }

      .cls-1, .cls-2, .cls-3, .cls-4, .cls-5 {
        stroke-miterlimit: 10;
      }

      .cls-1, .cls-5 {
        fill: #b3b3b3;
      }

      .cls-2, .cls-6 {
        fill: #fff;
      }

      .cls-3 {
        fill: none;
      }

      .cls-4 {
        fill: #e6e6e6;
      }

      .cls-5 {
        stroke: #231f20;
        stroke-linecap: round;
      }
    </style>
  </defs>
  <g>
    <path class="cls-6" d="M213,83.15h-12.31V26.99h12.31v56.17Z"/>
    <path class="cls-6" d="M249.72,56.3c0-3.31-1.8-4.54-4.82-4.54h-8.21c-2.45,0-4.25,1.22-4.25,4.54v26.86h-11.16v-31.18c0-7.34,5.47-10.58,12.31-10.58h14.98c6.84,0,12.31,3.38,12.31,10.73v31.04h-11.16v-26.86Z"/>
    <path class="cls-6" d="M294.29,78.26c-1.51,3.96-4.03,5.69-7.99,5.69s-6.77-1.73-8.28-5.76l-13.9-36.8h11.88l10.3,25.99,10.23-25.99h11.88l-14.11,36.87Z"/>
    <path class="cls-6" d="M350.38,83.15h-26.21c-6.84,0-12.17-3.96-12.17-11.45v-19.66c0-7.34,5.47-10.66,12.31-10.66h15.19c6.84,0,11.95,3.6,11.95,10.94v8.64l-28.15,9.86c0,2.02,2.38,2.02,5.9,2.02h21.17v10.3ZM323.09,60.47l17.21-6.12c0-1.58-.29-2.59-3.53-2.59h-8.35c-4.75,0-5.33,2.3-5.33,5.26v3.46Z"/>
    <path class="cls-6" d="M386.01,56.3c0-3.31-1.8-4.54-4.82-4.54h-8.21c-2.45,0-4.25,1.22-4.25,4.54v26.86h-11.16v-31.18c0-7.34,5.47-10.58,12.31-10.58h14.98c6.84,0,12.31,3.38,12.31,10.73v31.04h-11.16v-26.86Z"/>
    <path class="cls-6" d="M415.89,26.99v14.4h9.36v10.3h-9.36v31.47h-11.16V26.99h11.16Z"/>
    <path class="cls-6" d="M468.53,72.14c0,7.34-5.47,11.02-12.31,11.02h-15.05c-6.84,0-12.31-3.96-12.31-11.31v-19.59c0-7.34,5.47-10.87,12.31-10.87h15.05c6.84,0,12.31,3.17,12.31,10.51v20.23ZM440.08,68.32c0,3.24,1.8,4.54,4.82,4.54h8.21c2.45,0,4.32-1.3,4.32-4.54v-12.02c0-3.31-1.87-4.54-4.32-4.54h-8.21c-3.02,0-4.82,1.22-4.82,4.54v12.02Z"/>
    <path class="cls-6" d="M487.24,83.15h-11.16v-30.6c0-7.34,5.47-11.16,12.31-11.16h8.06v10.37h-4.39c-3.02,0-4.82,1.22-4.82,4.54v26.86Z"/>
    <path class="cls-6" d="M529.08,72.79v-31.4h11.16v46.95c0,7.34-5.47,10.66-12.31,10.66h-26.79v-10.37h23.69c2.45,0,4.25-1.22,4.25-4.54v-.94h-16.34c-6.84,0-12.31-3.31-12.31-10.66v-31.11h11.16v28.44c0,2.23,2.09,2.95,4.03,2.95h13.46Z"/>
    <path class="cls-6" d="M614.83,33.61c2.02-5.4,6.19-7.27,10.22-7.27,4.75,0,9.36,2.74,9.36,7.99v48.82h-12.31v-34.2l-10.58,28.37c-2.09,5.54-4.46,6.55-7.63,6.55s-5.54-1.01-7.63-6.55l-10.58-28.37v34.2h-12.31v-48.82c0-5.33,4.46-7.99,9.36-7.99,3.96,0,8.21,1.73,10.15,7.06l11.02,29.74,10.95-29.52Z"/>
    <path class="cls-6" d="M642.33,71.99v-4.61c0-7.34,5.47-10.66,12.31-10.66h16.34v-.43c0-3.31-1.8-4.54-4.25-4.54h-23.69v-10.37h26.79c6.84,0,12.31,3.31,12.31,10.66v19.95c0,7.34-5.47,11.16-12.31,11.16h-15.19c-6.84,0-12.31-3.82-12.31-11.16ZM670.99,68.32v-1.22h-13.46c-1.94,0-4.03.72-4.03,2.95s2.09,2.81,4.03,2.81h9.22c2.45,0,4.25-1.3,4.25-4.54Z"/>
    <path class="cls-6" d="M717.43,56.3c0-3.31-1.8-4.54-4.82-4.54h-8.21c-2.45,0-4.25,1.22-4.25,4.54v26.86h-11.16v-31.18c0-7.34,5.47-10.58,12.31-10.58h14.98c6.84,0,12.31,3.38,12.31,10.73v31.04h-11.16v-26.86Z"/>
    <path class="cls-6" d="M734.7,71.99v-4.61c0-7.34,5.47-10.66,12.31-10.66h16.35v-.43c0-3.31-1.8-4.54-4.25-4.54h-23.69v-10.37h26.79c6.84,0,12.31,3.31,12.31,10.66v19.95c0,7.34-5.47,11.16-12.31,11.16h-15.19c-6.84,0-12.31-3.82-12.31-11.16ZM763.36,68.32v-1.22h-13.46c-1.94,0-4.03.72-4.03,2.95s2.09,2.81,4.03,2.81h9.22c2.45,0,4.25-1.3,4.25-4.54Z"/>
    <path class="cls-6" d="M809.22,41.39c6.84,0,12.31,3.38,12.31,10.73v36.22c0,7.34-5.47,10.66-12.31,10.66h-26.79v-10.37h23.69c2.45,0,4.25-1.22,4.25-4.54v-.94h-16.35c-6.84,0-12.31-3.67-12.31-11.02v-19.59c0-7.34,5.47-11.16,12.31-11.16h15.19ZM796.91,51.69c-1.8,0-4.03,1.3-4.03,4.54v13.61c0,2.23,2.09,2.95,4.03,2.95h13.46v-16.56c0-3.24-1.8-4.54-4.25-4.54h-9.22Z"/>
    <path class="cls-6" d="M867.11,83.15h-26.21c-6.84,0-12.17-3.96-12.17-11.45v-19.66c0-7.34,5.47-10.66,12.31-10.66h15.19c6.84,0,11.95,3.6,11.95,10.94v8.64l-28.15,9.86c0,2.02,2.38,2.02,5.9,2.02h21.17v10.3ZM839.82,60.47l17.21-6.12c0-1.58-.29-2.59-3.53-2.59h-8.35c-4.75,0-5.33,2.3-5.33,5.26v3.46Z"/>
    <path class="cls-6" d="M886.19,83.15h-11.16v-30.6c0-7.34,5.47-11.16,12.31-11.16h8.06v10.37h-4.39c-3.02,0-4.82,1.22-4.82,4.54v26.86Z"/>
  </g>
  <g>
    <path class="cls-2" d="M13.43,67.72h79.4v54.82H13.53c-.06,0-.1-.04-.1-.1v-54.72h0Z"/>
    <g>
      <polygon points="44.9 93.43 44.93 83.37 53.21 87.75 68.16 79.87 72.8 77.62 72.86 87.48 58.32 95.3 53.22 97.94 44.9 93.43"/>
      <polygon points="42.59 112.57 33.39 107.55 33.4 77.48 42.56 82.21 42.59 112.57"/>
      <path d="M62.94,112.77l-.04-16.34c3.23-1.85,6.39-3.47,9.89-5.14l.02,16.22-9.87,5.27Z"/>
    </g>
    <path class="cls-2" d="M53.12,12.9h79.3c.06,0,.1.04.1.1v54.72H53.12V12.9h0Z"/>
    <g>
      <polygon points="84.6 38.61 84.63 28.55 92.91 32.93 107.86 25.05 112.5 22.8 112.55 32.67 98.02 40.48 92.92 43.13 84.6 38.61"/>
      <polygon points="82.29 57.75 73.09 52.73 73.1 22.67 82.25 27.39 82.29 57.75"/>
      <path d="M102.64,57.96l-.04-16.34c3.23-1.85,6.39-3.47,9.89-5.14l.02,16.22-9.87,5.27Z"/>
    </g>
    <line class="cls-3" x1="92.82" y1="122.54" x2="92.82" y2="67.72"/>
    <path class="cls-2" d="M185.65,135.58h-79.3c-.06,0-.1-.04-.1-.1v-54.72h79.3c.06,0,.1.04.1.1v54.72Z"/>
    <g>
      <polygon points="137.72 106.47 137.75 96.41 146.03 100.79 160.99 92.91 165.62 90.66 165.68 100.52 151.14 108.34 146.04 110.98 137.72 106.47"/>
      <polygon points="135.42 125.61 126.22 120.59 126.22 90.52 135.38 95.25 135.42 125.61"/>
      <path d="M155.76,125.81l-.04-16.34c3.23-1.85,6.39-3.47,9.89-5.14l.02,16.22-9.87,5.27Z"/>
    </g>
    <path class="cls-5" d="M53.12,67.72l-13.43-13.04H.25c-.09,0-.13.11-.07.17l13.25,12.87h39.7Z"/>
    <path class="cls-5" d="M13.43,67.72L.17,54.85c-.06-.06-.17-.02-.17.07v54.58l13.26,12.88c.06.06.17.02.17-.07v-54.58Z"/>
    <path class="cls-1" d="M53.12,12.9L39.87.03c-.06-.06-.17-.02-.17.07v54.58l13.26,12.88c.06.06.17.02.17-.07V12.9Z"/>
    <polygon class="cls-4" points="145.95 80.76 132.52 67.72 92.82 67.72 106.25 80.76 145.95 80.76"/>
    <path class="cls-4" d="M185.47,80.59l-13.25-12.87h-39.7l13.43,13.04h39.45c.09,0,.13-.11.07-.17Z"/>
    <path class="cls-4" d="M92.82,12.9L79.4-.14h-39.45c-.09,0-.13.11-.07.17l13.25,12.87h39.7Z"/>
    <path class="cls-4" d="M132.34,12.73L119.1-.14h-39.7l13.43,13.04h39.45c.09,0,.13-.11.07-.17Z"/>
    <path class="cls-1" d="M106.08,135.41l-13.26-12.88v-54.58c0-.09.11-.13.17-.07l13.26,12.88v54.58c0,.09-.11.13-.17.07Z"/>
  </g>
  <g>
    <g>
      <g>
        <polygon class="cls-6" points="395.75 157.16 395.78 145.25 405.59 150.43 423.3 141.1 428.79 138.44 428.86 150.12 411.65 159.38 405.6 162.51 395.75 157.16"/>
        <polygon class="cls-6" points="393.02 179.83 382.12 173.88 382.13 138.28 392.97 143.87 393.02 179.83"/>
        <path class="cls-6" d="M417.12,180.07l-.05-19.36c3.83-2.19,7.57-4.11,11.72-6.09l.02,19.21-11.69,6.24Z"/>
      </g>
      <g>
        <path class="cls-6" d="M458.53,166.61l-1.41-5.4c-.23-.92-.39-1.9-.39-2.44-.41.84-.84,1.66-1.94,3.56l-1.64,2.8c-.84,1.49-1.54,1.72-2.68,1.72s-1.88-.2-2.74-1.72l-1.82-3.28c-1.04-1.84-1.37-2.46-1.68-3.09-.1.66-.27,1.47-.49,2.33l-1.37,5.51h-4.65l3.32-11.81c.41-1.43,1.45-2.13,2.66-2.13s2.01.63,2.58,1.62l2.25,3.77c1.27,2.11,1.7,2.85,2.03,3.52.33-.68.76-1.39,2.01-3.5l2.25-3.79c.55-.94,1.35-1.62,2.6-1.62,1.17,0,2.23.7,2.64,2.13,1.08,3.93,2.13,7.88,3.21,11.81h-4.73Z"/>
        <path class="cls-6" d="M475.82,166.83c-6.8,0-10.21-2.19-10.21-7.08s3.42-7.06,10.21-7.06,10.23,2.17,10.23,7.06-3.44,7.08-10.23,7.08ZM475.82,156.68c-4.09,0-5.49.35-5.49,3.07s1.39,3.09,5.49,3.09,5.51-.39,5.51-3.09-1.39-3.07-5.51-3.07Z"/>
        <path class="cls-6" d="M490.27,166.61v-8.54h4.75v4.61h4.59c2.15,0,3.68-.8,3.68-3.05,0-1.86-1.62-2.72-3.68-2.72h-9.33l3.01-3.99h6.33c4.87,0,8.39,2.76,8.39,6.71s-3.56,6.98-8.39,6.98h-9.33Z"/>
        <path class="cls-6" d="M525.54,152.91h4.77v7.72c0,4.13-2.89,6.2-8.7,6.2-6.69,0-9.58-2.07-9.58-6.2v-7.72h4.73v7.72c0,1.78.59,2.27,4.85,2.27,2.89,0,3.93-.63,3.93-2.27v-7.72Z"/>
        <path class="cls-6" d="M534.79,166.61v-13.69h4.73v9.76h10.4l-3.05,3.93h-12.08Z"/>
        <path class="cls-6" d="M566.72,152.91h4.77v7.72c0,4.13-2.89,6.2-8.7,6.2-6.69,0-9.58-2.07-9.58-6.2v-7.72h4.73v7.72c0,1.78.59,2.27,4.85,2.27,2.89,0,3.93-.63,3.93-2.27v-7.72Z"/>
        <path class="cls-6" d="M575.16,166.61l3.05-3.93h10.34c.61,0,.96-.23.96-.72s-.35-.72-1-.72h-7.74c-3.54,0-5.16-1.66-5.16-3.97,0-2.76,1.72-4.36,6-4.36h12.08l-3.05,3.99h-9.48c-.63,0-.96.16-.96.65s.33.68.96.68h7.78c3.32,0,5.14,1.29,5.14,3.79,0,2.82-1.35,4.59-5.59,4.59h-13.33Z"/>
      </g>
      <g>
        <path class="cls-6" d="M609.19,158.14c-.52-.67-1.27-1.03-2.74-1.03-1.2,0-2.2.25-2.2,1.02,0,.58.54.75,2.51.93,1.81.16,3.37.21,3.37,1.7,0,1.56-1.72,1.93-3.19,1.93-2.01,0-3.13-.69-3.65-1.55l.66-.3c.58.74,1.38,1.2,3.01,1.2,1.34,0,2.35-.31,2.35-1.21,0-.7-.61-.84-2.66-1.03-1.79-.17-3.21-.25-3.21-1.59,0-1.43,1.66-1.76,3.06-1.76,1.94,0,2.89.63,3.37,1.4l-.67.29Z"/>
        <path class="cls-6" d="M612.89,159.57c0-1.72,1.27-3.13,3.86-3.13s3.87,1.41,3.87,3.13-1.29,3.12-3.87,3.12-3.86-1.4-3.86-3.12ZM619.8,159.57c0-1.41-1.04-2.47-3.05-2.47s-3.03,1.06-3.03,2.47,1.02,2.46,3.03,2.46,3.05-1.06,3.05-2.46Z"/>
        <path class="cls-6" d="M623.9,162.5v-5.86h5.39v.66h-4.61v2.02h2.89v.66h-2.89v2.51h-.78Z"/>
        <path class="cls-6" d="M634.23,162.5v-5.19h-2.82v-.66h6.4v.66h-2.81v5.19h-.78Z"/>
        <path class="cls-6" d="M639.97,156.65h.86l1.92,4.66,1.79-4.66h.49l1.79,4.64,1.92-4.64h.8l-2.49,5.86h-.49l-1.81-4.68-1.79,4.68h-.49l-2.49-5.86Z"/>
        <path class="cls-6" d="M652.04,162.5h-.84l3.22-5.86h.54l3.22,5.86h-.94l-.85-1.6h-3.49l-.85,1.6ZM653.25,160.24h2.77l-1.38-2.59-1.38,2.59Z"/>
        <path class="cls-6" d="M667.5,162.5c-.25.09-.48.15-.8.15-2.26,0-1.21-2.8-3.2-2.8h-1.7v2.65h-.78v-5.86h3.95c1.31,0,2.24.54,2.24,1.6s-.95,1.59-2.24,1.59h-.05v.02c.99.61.79,2.08,1.93,2.08.19,0,.44-.04.65-.1v.67ZM661.8,157.31v1.88h3.25c.69,0,1.34-.24,1.34-.94s-.65-.93-1.34-.93h-3.25Z"/>
        <path class="cls-6" d="M670.68,162.5v-5.86h5.39v.66h-4.61v1.86h2.89v.66h-2.89v2.01h4.99v.66h-5.77Z"/>
        <path class="cls-6" d="M680.81,162.34c0,.85-.6,1.7-1.42,1.7v-.44c.32-.07.82-.4.82-1.09h-.85v-.86h1.46v.7Z"/>
        <path class="cls-6" d="M689.05,156.65h.78v5.19h4.36v.66h-5.14v-5.86Z"/>
        <path class="cls-6" d="M697.12,156.65h.78v5.19h4.36v.66h-5.14v-5.86Z"/>
        <path class="cls-6" d="M711.68,161.27c-.43.47-1.34,1.42-3.45,1.42-2.57,0-3.85-1.4-3.85-3.12s1.28-3.13,3.87-3.13c2.14,0,3.01.95,3.33,1.26l-.58.45c-.7-.57-1.35-1.05-2.79-1.05-2.01,0-3.01,1.06-3.01,2.46s1.02,2.47,3.05,2.47c1.53,0,2.2-.6,2.84-1.2l.58.45Z"/>
      </g>
    </g>
    <g>
      <path class="cls-6" d="M531.63,133.58c0,1.27-.89,1.91-2.12,1.91h-5.51v-9.88h5.51c1.23,0,2.12.75,2.12,2.01v1.82c0,.67-.39.92-.67,1.18.27.25.67.54.67,1.19v1.76ZM526.17,127.67v1.77h2.62c.44,0,.67-.28.67-.85v-.09c0-.56-.23-.84-.67-.84h-2.62ZM526.17,131.52v1.9h2.62c.44,0,.67-.28.67-.85v-.15c0-.56-.23-.9-.67-.9h-2.62Z"/>
      <path class="cls-6" d="M534.99,132.88c0,.57.32.8.85.8h1.44c.43,0,.75-.23.75-.8v-4.74h1.96v5.38c0,1.29-.96,1.96-2.17,1.96h-2.63c-1.2,0-2.17-.67-2.17-1.96v-5.38h1.96v4.74Z"/>
      <path class="cls-6" d="M542.43,125.61c.6,0,1.09.49,1.09,1.09s-.49,1.09-1.09,1.09-1.09-.49-1.09-1.09.49-1.09,1.09-1.09ZM543.42,135.49h-1.96v-7.35h1.96v7.35Z"/>
      <path class="cls-6" d="M546.9,135.49h-1.96v-9.88h1.96v9.88Z"/>
      <path class="cls-6" d="M550.39,125.61v2.53h1.65v1.81h-1.65v5.54h-1.96v-9.88h1.96Z"/>
      <path class="cls-6" d="M564.73,133.58c0,1.27-.89,1.91-2.12,1.91h-5.51v-9.88h5.51c1.23,0,2.12.75,2.12,2.01v1.82c0,.67-.39.92-.67,1.18.27.25.67.54.67,1.19v1.76ZM559.27,127.67v1.77h2.62c.44,0,.67-.28.67-.85v-.09c0-.56-.23-.84-.67-.84h-2.62ZM559.27,131.52v1.9h2.62c.44,0,.67-.28.67-.85v-.15c0-.56-.23-.9-.67-.9h-2.62Z"/>
      <path class="cls-6" d="M571.16,133.66v-5.52h1.96v8.26c0,1.29-.96,1.87-2.17,1.87h-4.71v-1.82h4.17c.43,0,.75-.22.75-.8v-.16h-2.88c-1.2,0-2.17-.58-2.17-1.87v-5.47h1.96v5c0,.39.37.52.71.52h2.37Z"/>
    </g>
  </g>
</svg>