<?xml version="1.0" encoding="UTF-8"?>
<svg id="Layer_1" data-name="Layer 1" xmlns="http://www.w3.org/2000/svg" viewBox="0 0 892.57 173.59">
  <defs>
    <style>
      .cls-1, .cls-2, .cls-3, .cls-4 {
        stroke: #000;
      }

      .cls-1, .cls-2, .cls-3, .cls-4, .cls-5 {
        stroke-miterlimit: 10;
      }

      .cls-1, .cls-6, .cls-5 {
        fill: #b3b3b3;
      }

      .cls-2, .cls-7 {
        fill: #fff;
      }

      .cls-3 {
        fill: none;
      }

      .cls-4 {
        fill: #e6e6e6;
      }

      .cls-5 {
        stroke: #231f20;
        stroke-linecap: round;
      }
    </style>
  </defs>
  <g>
    <path class="cls-7" d="M210.95,83.29h-12.27V27.13h12.27v56.17Z"/>
    <path class="cls-7" d="M247.56,56.43c0-3.31-1.79-4.54-4.81-4.54h-8.18c-2.44,0-4.23,1.22-4.23,4.54v26.86h-11.13v-31.18c0-7.34,5.46-10.58,12.27-10.58h14.93c6.82,0,12.27,3.38,12.27,10.73v31.03h-11.12v-26.86Z"/>
    <path class="cls-7" d="M291.98,78.39c-1.51,3.96-4.02,5.69-7.97,5.69s-6.75-1.73-8.25-5.76l-13.85-36.79h11.84l10.26,25.99,10.19-25.99h11.84l-14.07,36.87Z"/>
    <path class="cls-7" d="M347.89,83.29h-26.13c-6.82,0-12.13-3.96-12.13-11.45v-19.66c0-7.34,5.46-10.66,12.27-10.66h15.15c6.82,0,11.92,3.6,11.92,10.94v8.64l-28.07,9.86c0,2.02,2.37,2.02,5.89,2.02h21.1v10.3ZM320.69,60.61l17.15-6.12c0-1.58-.29-2.59-3.52-2.59h-8.33c-4.74,0-5.31,2.3-5.31,5.26v3.46Z"/>
    <path class="cls-7" d="M383.42,56.43c0-3.31-1.79-4.54-4.81-4.54h-8.18c-2.44,0-4.24,1.22-4.24,4.54v26.86h-11.12v-31.18c0-7.34,5.46-10.58,12.27-10.58h14.93c6.82,0,12.27,3.38,12.27,10.73v31.03h-11.13v-26.86Z"/>
    <path class="cls-7" d="M413.2,27.13v14.4h9.33v10.3h-9.33v31.47h-11.12V27.13h11.12Z"/>
    <path class="cls-7" d="M465.67,72.27c0,7.34-5.46,11.02-12.27,11.02h-15c-6.82,0-12.27-3.96-12.27-11.3v-19.59c0-7.34,5.46-10.87,12.27-10.87h15c6.82,0,12.27,3.17,12.27,10.51v20.23ZM437.32,68.46c0,3.24,1.79,4.54,4.81,4.54h8.18c2.44,0,4.31-1.3,4.31-4.54v-12.02c0-3.31-1.87-4.54-4.31-4.54h-8.18c-3.01,0-4.81,1.22-4.81,4.54v12.02Z"/>
    <path class="cls-7" d="M484.33,83.29h-11.13v-30.6c0-7.34,5.46-11.16,12.27-11.16h8.04v10.37h-4.38c-3.02,0-4.81,1.22-4.81,4.54v26.86Z"/>
    <path class="cls-7" d="M526.03,72.92v-31.39h11.13v46.95c0,7.34-5.46,10.66-12.27,10.66h-26.7v-10.37h23.62c2.44,0,4.23-1.22,4.23-4.54v-.94h-16.29c-6.82,0-12.27-3.31-12.27-10.66v-31.11h11.12v28.44c0,2.23,2.08,2.95,4.02,2.95h13.42Z"/>
    <path class="cls-7" d="M611.51,33.75c2.01-5.4,6.17-7.27,10.19-7.27,4.74,0,9.33,2.74,9.33,7.99v48.82h-12.27v-34.2l-10.55,28.37c-2.08,5.54-4.45,6.55-7.61,6.55s-5.53-1.01-7.61-6.55l-10.55-28.37v34.2h-12.27v-48.82c0-5.33,4.45-7.99,9.33-7.99,3.95,0,8.18,1.73,10.12,7.06l10.98,29.74,10.91-29.52Z"/>
    <path class="cls-7" d="M638.92,72.13v-4.61c0-7.34,5.46-10.66,12.27-10.66h16.29v-.43c0-3.31-1.79-4.54-4.23-4.54h-23.62v-10.37h26.7c6.82,0,12.27,3.31,12.27,10.66v19.95c0,7.34-5.46,11.16-12.27,11.16h-15.14c-6.82,0-12.27-3.82-12.27-11.16ZM667.49,68.46v-1.22h-13.42c-1.94,0-4.02.72-4.02,2.95s2.08,2.81,4.02,2.81h9.19c2.44,0,4.23-1.3,4.23-4.54Z"/>
    <path class="cls-7" d="M713.78,56.43c0-3.31-1.79-4.54-4.81-4.54h-8.18c-2.44,0-4.24,1.22-4.24,4.54v26.86h-11.13v-31.18c0-7.34,5.46-10.58,12.27-10.58h14.93c6.82,0,12.27,3.38,12.27,10.73v31.03h-11.13v-26.86Z"/>
    <path class="cls-7" d="M731,72.13v-4.61c0-7.34,5.46-10.66,12.27-10.66h16.29v-.43c0-3.31-1.79-4.54-4.23-4.54h-23.62v-10.37h26.7c6.82,0,12.27,3.31,12.27,10.66v19.95c0,7.34-5.46,11.16-12.27,11.16h-15.14c-6.82,0-12.27-3.82-12.27-11.16ZM759.57,68.46v-1.22h-13.42c-1.94,0-4.02.72-4.02,2.95s2.08,2.81,4.02,2.81h9.19c2.44,0,4.23-1.3,4.23-4.54Z"/>
    <path class="cls-7" d="M805.29,41.53c6.82,0,12.27,3.38,12.27,10.73v36.22c0,7.34-5.46,10.66-12.27,10.66h-26.7v-10.37h23.61c2.44,0,4.24-1.22,4.24-4.54v-.94h-16.29c-6.82,0-12.27-3.67-12.27-11.02v-19.59c0-7.34,5.46-11.16,12.27-11.16h15.15ZM793.01,51.82c-1.79,0-4.02,1.3-4.02,4.54v13.61c0,2.23,2.08,2.95,4.02,2.95h13.42v-16.56c0-3.24-1.79-4.54-4.24-4.54h-9.19Z"/>
    <path class="cls-7" d="M862.99,83.29h-26.13c-6.82,0-12.13-3.96-12.13-11.45v-19.66c0-7.34,5.46-10.66,12.27-10.66h15.15c6.82,0,11.92,3.6,11.92,10.94v8.64l-28.06,9.86c0,2.02,2.37,2.02,5.88,2.02h21.1v10.3ZM835.79,60.61l17.16-6.12c0-1.58-.29-2.59-3.52-2.59h-8.33c-4.74,0-5.31,2.3-5.31,5.26v3.46Z"/>
    <path class="cls-7" d="M882.01,83.29h-11.12v-30.6c0-7.34,5.46-11.16,12.27-11.16h8.04v10.37h-4.38c-3.01,0-4.81,1.22-4.81,4.54v26.86Z"/>
  </g>
  <g>
    <path class="cls-2" d="M12.01,67.86h79.15v54.82H12.11c-.06,0-.1-.04-.1-.1v-54.72h0Z"/>
    <g>
      <polygon class="cls-6" points="43.39 93.57 43.41 83.51 51.67 87.89 66.58 80 71.19 77.76 71.25 87.62 56.76 95.44 51.68 98.08 43.39 93.57"/>
      <polygon class="cls-6" points="41.08 112.7 31.91 107.68 31.92 77.62 41.05 82.35 41.08 112.7"/>
      <path class="cls-6" d="M61.37,112.91l-.04-16.34c3.22-1.85,6.37-3.47,9.86-5.14l.02,16.22-9.84,5.27Z"/>
    </g>
    <path class="cls-2" d="M51.58,13.04h79.05c.06,0,.1.04.1.1v54.72H51.58V13.04h0Z"/>
    <g>
      <polygon class="cls-6" points="82.96 38.75 82.98 28.69 91.24 33.07 106.15 25.19 110.77 22.94 110.82 32.8 96.34 40.62 91.25 43.26 82.96 38.75"/>
      <polygon class="cls-6" points="80.66 57.89 71.49 52.87 71.49 22.8 80.62 27.53 80.66 57.89"/>
      <path class="cls-6" d="M100.94,58.09l-.04-16.34c3.22-1.85,6.37-3.47,9.86-5.14l.02,16.22-9.84,5.27Z"/>
    </g>
    <line class="cls-3" x1="91.16" y1="122.67" x2="91.16" y2="67.86"/>
    <path class="cls-2" d="M183.68,135.71h-79.05c-.06,0-.1-.04-.1-.1v-54.72h79.05c.06,0,.1.04.1.1v54.72Z"/>
    <g>
      <polygon class="cls-6" points="135.91 106.61 135.94 96.55 144.2 100.93 159.1 93.04 163.72 90.8 163.78 100.66 149.29 108.48 144.21 111.12 135.91 106.61"/>
      <polygon class="cls-6" points="133.61 125.74 124.44 120.72 124.45 90.66 133.58 95.39 133.61 125.74"/>
      <path class="cls-6" d="M153.9,125.95l-.04-16.34c3.22-1.85,6.37-3.47,9.86-5.14l.02,16.22-9.84,5.27Z"/>
    </g>
    <path class="cls-5" d="M51.58,67.86l-13.38-13.04H-1.13c-.09,0-.13.11-.07.17l13.21,12.87h39.57Z"/>
    <path class="cls-5" d="M12.01,67.86L-1.2,54.98c-.06-.06-.17-.02-.17.07v54.58l13.21,12.88c.06.06.17.02.17-.07v-54.58Z"/>
    <path class="cls-1" d="M51.58,13.04L38.37.16c-.06-.06-.17-.02-.17.07v54.58l13.21,12.88c.06.06.17.02.17-.07V13.04Z"/>
    <polygon class="cls-4" points="144.11 80.9 130.73 67.86 91.16 67.86 104.54 80.9 144.11 80.9"/>
    <path class="cls-4" d="M183.51,80.73l-13.21-12.87h-39.57l13.38,13.04h39.33c.09,0,.13-.11.07-.17Z"/>
    <path class="cls-4" d="M91.16,13.04L77.77,0h-39.33c-.09,0-.13.11-.07.17l13.21,12.87h39.57Z"/>
    <path class="cls-4" d="M130.55,12.87L117.35,0h-39.57l13.38,13.04h39.33c.09,0,.13-.11.07-.17Z"/>
    <path class="cls-1" d="M104.37,135.55l-13.21-12.88v-54.58c0-.09.11-.13.17-.07l13.21,12.88v54.58c0,.09-.11.13-.17.07Z"/>
  </g>
  <g>
    <g>
      <path class="cls-7" d="M600.9,147.57c-.92-.97-2.08-1.49-4.21-1.49-1.72,0-3.09.35-3.09,1.36,0,.84.98,1,3.77,1.27,2.87.26,5.1.47,5.1,2.65,0,2.32-2.53,2.99-5.11,2.99-3.06,0-4.8-.96-5.76-2.27l1.12-.67c1,1.07,2.28,1.74,4.67,1.74,1.87,0,3.26-.41,3.26-1.61,0-1.04-1.09-1.12-3.96-1.39-2.82-.26-4.88-.58-4.88-2.53,0-2.12,2.47-2.74,4.92-2.74,2.95,0,4.44.91,5.29,2.03l-1.13.66Z"/>
      <path class="cls-7" d="M606.51,149.62c0-2.56,2-4.74,6.09-4.74s6.1,2.18,6.1,4.74-2.02,4.73-6.1,4.73-6.09-2.17-6.09-4.73ZM616.92,149.62c0-2.01-1.56-3.52-4.32-3.52s-4.3,1.51-4.3,3.52,1.55,3.51,4.3,3.51,4.32-1.5,4.32-3.51Z"/>
      <path class="cls-7" d="M623.47,154.06v-8.87h8.57v1.22h-6.91v2.79h4.33v1.23h-4.33v3.63h-1.66Z"/>
      <path class="cls-7" d="M639.42,154.06v-7.63h-4.21v-1.24h10.07v1.24h-4.21v7.63h-1.66Z"/>
      <path class="cls-7" d="M648.42,145.19h1.82l2.67,6.59,2.59-6.59h1.19l2.64,6.59,2.67-6.59h1.74l-3.81,8.87h-1.13l-2.73-6.76-2.72,6.76h-1.14l-3.8-8.87Z"/>
      <path class="cls-7" d="M667.72,154.06h-1.71l4.9-8.87h1.48l4.88,8.87h-1.95l-1.13-2.13h-5.33l-1.13,2.13ZM669.54,150.65h3.97l-1.97-3.73-2,3.73Z"/>
      <path class="cls-7" d="M691.88,154.06c-.46.14-.93.24-1.5.24-3.65,0-2.18-4.13-5.29-4.13h-2.06v3.9h-1.66v-8.87h6.5c1.9,0,3.42.82,3.42,2.47s-1.46,2.48-3.45,2.48v.02c1.3.83,1.17,2.79,2.84,2.79.32,0,.81-.07,1.19-.15v1.25ZM683.04,146.38v2.59h4.78c.92,0,1.79-.32,1.79-1.3s-.87-1.29-1.79-1.29h-4.78Z"/>
      <path class="cls-7" d="M696.55,154.06v-8.87h8.57v1.22h-6.91v2.49h4.33v1.25h-4.33v2.69h7.47v1.22h-9.13Z"/>
      <path class="cls-7" d="M712.37,153.76c0,1.44-1.04,2.67-2.49,2.67v-.79c.58-.09,1.31-.58,1.31-1.58h-1.27v-1.51h2.44v1.22Z"/>
      <path class="cls-7" d="M724.42,145.19h1.66v7.62h6.52v1.25h-8.19v-8.87Z"/>
      <path class="cls-7" d="M736.92,145.19h1.66v7.62h6.52v1.25h-8.19v-8.87Z"/>
      <path class="cls-7" d="M759.76,152.19c-.64.73-2.17,2.16-5.42,2.16-3.81,0-6.05-1.96-6.05-4.74s2.11-4.73,6.09-4.73c3.31,0,4.67,1.4,5.22,1.95l-1.22.77c-.96-.79-2-1.5-4.03-1.5-2.95,0-4.29,1.62-4.29,3.5s1.48,3.54,4.35,3.54c2.12,0,3.23-.86,4.12-1.74l1.23.79Z"/>
    </g>
    <g>
      <polygon class="cls-7" points="342.44 146.74 342.44 132.71 354.1 138.72 374.92 127.82 381.4 124.49 381.4 138.46 361.16 149.39 354.1 153.12 342.44 146.74"/>
      <polygon class="cls-7" points="339.12 173.59 326.32 166.51 326.32 124.49 339.12 131.09 339.12 173.59"/>
      <path class="cls-7" d="M367.56,173.59v-22.62c4.52-2.58,8.93-4.85,13.83-7.19v22.73s-13.83,7.08-13.83,7.08Z"/>
    </g>
    <g>
      <path class="cls-7" d="M416.72,158.47l-1.69-6.48c-.27-1.11-.47-2.28-.47-2.92-.49,1.01-1.01,1.99-2.33,4.27l-1.96,3.36c-1.01,1.79-1.84,2.06-3.22,2.06s-2.26-.25-3.29-2.06l-2.19-3.93c-1.25-2.21-1.65-2.95-2.01-3.71-.12.79-.32,1.77-.59,2.8l-1.65,6.61h-5.57l3.98-14.17c.49-1.72,1.74-2.55,3.19-2.55s2.41.76,3.09,1.94l2.7,4.52c1.52,2.53,2.04,3.41,2.43,4.22.39-.81.91-1.67,2.41-4.2l2.7-4.54c.66-1.13,1.62-1.94,3.12-1.94,1.4,0,2.68.83,3.17,2.55,1.3,4.71,2.55,9.45,3.86,14.17h-5.67Z"/>
      <path class="cls-7" d="M437.47,158.74c-8.15,0-12.25-2.63-12.25-8.5s4.1-8.47,12.25-8.47,12.28,2.6,12.28,8.47-4.13,8.5-12.28,8.5ZM437.47,146.56c-4.91,0-6.58.42-6.58,3.68s1.67,3.71,6.58,3.71,6.61-.47,6.61-3.71-1.67-3.68-6.61-3.68Z"/>
      <path class="cls-7" d="M454.8,158.47v-10.24h5.7v5.53h5.5c2.58,0,4.42-.96,4.42-3.66,0-2.23-1.94-3.27-4.42-3.27h-11.2l3.61-4.79h7.59c5.84,0,10.07,3.31,10.07,8.05s-4.27,8.37-10.07,8.37h-11.2Z"/>
      <path class="cls-7" d="M497.11,142.04h5.72v9.26c0,4.96-3.46,7.44-10.44,7.44-8.03,0-11.49-2.48-11.49-7.44v-9.26h5.67v9.26c0,2.14.71,2.73,5.82,2.73,3.46,0,4.71-.76,4.71-2.73v-9.26Z"/>
      <path class="cls-7" d="M508.21,158.47v-16.43h5.67v11.71h12.48l-3.66,4.71h-14.49Z"/>
      <path class="cls-7" d="M546.52,142.04h5.72v9.26c0,4.96-3.46,7.44-10.44,7.44-8.03,0-11.49-2.48-11.49-7.44v-9.26h5.67v9.26c0,2.14.71,2.73,5.82,2.73,3.46,0,4.71-.76,4.71-2.73v-9.26Z"/>
      <path class="cls-7" d="M556.63,158.47l3.66-4.71h12.4c.74,0,1.15-.27,1.15-.86s-.42-.86-1.2-.86h-9.28c-4.25,0-6.19-1.99-6.19-4.76,0-3.32,2.06-5.23,7.2-5.23h14.49l-3.66,4.79h-11.37c-.76,0-1.15.2-1.15.79s.39.81,1.15.81h9.33c3.98,0,6.16,1.55,6.16,4.54,0,3.39-1.62,5.5-6.7,5.5h-15.99Z"/>
    </g>
    <g>
      <path class="cls-7" d="M504.4,120.67h6.69c2.32,0,3.44.99,3.44,2.36,0,.84-.45,1.71-1.49,1.95v.03c1.13.2,1.74.92,1.74,2.02,0,1.51-1.1,2.52-3.61,2.52h-6.76v-8.87ZM506.07,124.39h5.11c1.15,0,1.62-.55,1.62-1.22,0-.78-.63-1.28-1.79-1.28h-4.95v2.49ZM506.07,125.62v2.69h4.94c1.22,0,1.96-.45,1.96-1.41s-.75-1.28-1.77-1.28h-5.12Z"/>
      <path class="cls-7" d="M517.53,125.91v-5.24h1.66v5.11c0,2.07,1.34,2.77,3.46,2.77s3.44-.7,3.44-2.77v-5.11h1.58v5.24c0,3.32-2.62,3.92-5.04,3.92s-5.1-.6-5.1-3.92Z"/>
      <path class="cls-7" d="M531.04,129.54v-8.87h1.66v8.87h-1.66Z"/>
      <path class="cls-7" d="M536.31,120.67h1.66v7.62h6.52v1.25h-8.19v-8.87Z"/>
      <path class="cls-7" d="M547.91,129.54v-7.63h-4.21v-1.24h10.07v1.24h-4.21v7.63h-1.66Z"/>
      <path class="cls-7" d="M560.52,120.67h6.69c2.32,0,3.44.99,3.44,2.36,0,.84-.45,1.71-1.49,1.95v.03c1.13.2,1.74.92,1.74,2.02,0,1.51-1.1,2.52-3.61,2.52h-6.76v-8.87ZM562.18,124.39h5.11c1.15,0,1.62-.55,1.62-1.22,0-.78-.63-1.28-1.79-1.28h-4.95v2.49ZM562.18,125.62v2.69h4.94c1.22,0,1.96-.45,1.96-1.41s-.75-1.28-1.77-1.28h-5.12Z"/>
      <path class="cls-7" d="M576.76,126.1l-4.83-5.43h2.26l3.54,4.16,3.52-4.16h2.01l-4.83,5.45v3.42h-1.67v-3.44Z"/>
    </g>
  </g>
</svg>