<?xml version="1.0" encoding="UTF-8"?>
<svg id="Layer_1" data-name="Layer 1" xmlns="http://www.w3.org/2000/svg" viewBox="0 0 1943.15 244.84">
  <defs>
    <style>
      .cls-1 {
        fill: #fff;
      }
    </style>
  </defs>
  <g>
    <path class="cls-1" d="M439.31,176.72l-8.31-31.8c-1.32-5.42-2.29-11.2-2.29-14.33-2.41,4.94-4.94,9.76-11.44,20.96l-9.64,16.5c-4.94,8.79-9.03,10.12-15.78,10.12s-11.08-1.21-16.14-10.12l-10.72-19.27c-6.14-10.84-8.07-14.45-9.88-18.19-.6,3.85-1.57,8.67-2.89,13.73l-8.07,32.4h-27.34l19.51-69.5c2.41-8.43,8.55-12.53,15.66-12.53s11.8,3.73,15.18,9.52l13.25,22.16c7.47,12.41,10,16.74,11.92,20.72,1.93-3.98,4.46-8.19,11.8-20.6l13.25-22.28c3.25-5.54,7.95-9.52,15.3-9.52,6.87,0,13.13,4.09,15.54,12.53,6.38,23.13,12.53,46.38,18.91,69.5h-27.82Z"/>
    <path class="cls-1" d="M541.1,178.04c-39.99,0-60.11-12.89-60.11-41.68s20.12-41.56,60.11-41.56,60.23,12.77,60.23,41.56-20.24,41.68-60.23,41.68ZM541.1,118.3c-24.09,0-32.28,2.05-32.28,18.07s8.19,18.19,32.28,18.19,32.4-2.29,32.4-18.19-8.19-18.07-32.4-18.07Z"/>
    <path class="cls-1" d="M626.14,176.72v-50.23h27.95v27.1h26.98c12.65,0,21.68-4.7,21.68-17.95,0-10.96-9.52-16.02-21.68-16.02h-54.93l17.71-23.49h37.22c28.67,0,49.38,16.26,49.38,39.51s-20.96,41.07-49.38,41.07h-54.93Z"/>
    <path class="cls-1" d="M833.69,96.13h28.07v45.41c0,24.33-16.98,36.5-51.19,36.5-39.39,0-56.37-12.17-56.37-36.5v-45.41h27.83v45.41c0,10.48,3.49,13.37,28.55,13.37,16.98,0,23.13-3.73,23.13-13.37v-45.41Z"/>
    <path class="cls-1" d="M888.13,176.72v-80.58h27.82v57.46h61.19l-17.95,23.13h-71.07Z"/>
    <path class="cls-1" d="M1076.05,96.13h28.07v45.41c0,24.33-16.98,36.5-51.19,36.5-39.39,0-56.37-12.17-56.37-36.5v-45.41h27.82v45.41c0,10.48,3.49,13.37,28.55,13.37,16.98,0,23.13-3.73,23.13-13.37v-45.41Z"/>
    <path class="cls-1" d="M1125.67,176.72l17.95-23.13h60.83c3.61,0,5.66-1.33,5.66-4.22s-2.05-4.22-5.9-4.22h-45.53c-20.84,0-30.35-9.76-30.35-23.37,0-16.26,10.12-25.66,35.29-25.66h71.07l-17.95,23.49h-55.77c-3.73,0-5.66.96-5.66,3.85s1.93,3.97,5.66,3.97h45.77c19.51,0,30.23,7.59,30.23,22.28,0,16.62-7.95,26.98-32.88,26.98h-78.42Z"/>
  </g>
  <g>
    <path class="cls-1" d="M1325.81,127.53c-3.55-3.75-8.06-5.76-16.27-5.76-6.67,0-11.95,1.34-11.95,5.28,0,3.26,3.79,3.89,14.59,4.9,11.09,1.01,19.73,1.82,19.73,10.27,0,8.98-9.79,11.57-19.78,11.57-11.86,0-18.58-3.7-22.27-8.79l4.32-2.59c3.89,4.13,8.83,6.72,18.05,6.72,7.25,0,12.62-1.58,12.62-6.24,0-4.03-4.22-4.32-15.31-5.38-10.9-1.01-18.87-2.26-18.87-9.79,0-8.21,9.55-10.61,19.06-10.61,11.43,0,17.19,3.5,20.45,7.87l-4.37,2.54Z"/>
    <path class="cls-1" d="M1347.5,135.45c0-9.89,7.73-18.34,23.57-18.34s23.62,8.45,23.62,18.34-7.83,18.29-23.62,18.29-23.57-8.4-23.57-18.29ZM1387.77,135.45c0-7.78-6.05-13.63-16.71-13.63s-16.66,5.86-16.66,13.63,6,13.59,16.66,13.59,16.71-5.81,16.71-13.59Z"/>
    <path class="cls-1" d="M1413.11,152.63v-34.32h33.17v4.7h-26.74v10.8h16.75v4.75h-16.75v14.07h-6.43Z"/>
    <path class="cls-1" d="M1474.8,152.63v-29.52h-16.27v-4.8h38.98v4.8h-16.27v29.52h-6.43Z"/>
    <path class="cls-1" d="M1509.59,118.31h7.06l10.32,25.49,10.03-25.49h4.61l10.22,25.49,10.32-25.49h6.72l-14.74,34.32h-4.37l-10.56-26.16-10.51,26.16h-4.42l-14.69-34.32Z"/>
    <path class="cls-1" d="M1584.28,152.63h-6.62l18.96-34.32h5.71l18.87,34.32h-7.54l-4.37-8.26h-20.64l-4.37,8.26ZM1591.29,139.43h15.36l-7.63-14.45-7.73,14.45Z"/>
    <path class="cls-1" d="M1677.74,152.63c-1.78.53-3.6.91-5.81.91-14.11,0-8.45-15.99-20.45-15.99h-7.97v15.07h-6.43v-34.32h25.15c7.34,0,13.25,3.17,13.25,9.55s-5.67,9.6-13.35,9.6v.1c5.04,3.22,4.51,10.8,10.99,10.8,1.25,0,3.12-.29,4.61-.58v4.85ZM1643.52,122.92v10.03h18.48c3.55,0,6.91-1.25,6.91-5.04s-3.36-4.99-6.91-4.99h-18.48Z"/>
    <path class="cls-1" d="M1695.79,152.63v-34.32h33.17v4.7h-26.74v9.65h16.75v4.85h-16.75v10.42h28.9v4.7h-35.33Z"/>
    <path class="cls-1" d="M1756.99,151.48c0,5.57-4.03,10.32-9.65,10.32v-3.07c2.26-.34,5.09-2.26,5.09-6.1h-4.9v-5.86h9.46v4.7Z"/>
    <path class="cls-1" d="M1803.59,118.31h6.43v29.47h25.25v4.85h-31.68v-34.32Z"/>
    <path class="cls-1" d="M1851.93,118.31h6.43v29.47h25.25v4.85h-31.68v-34.32Z"/>
    <path class="cls-1" d="M1940.3,145.39c-2.5,2.83-8.4,8.35-20.98,8.35-14.74,0-23.43-7.58-23.43-18.34s8.16-18.29,23.57-18.29c12.82,0,18.05,5.42,20.21,7.54l-4.7,2.98c-3.7-3.07-7.73-5.81-15.6-5.81-11.42,0-16.61,6.29-16.61,13.54s5.71,13.68,16.85,13.68c8.21,0,12.48-3.31,15.94-6.72l4.75,3.07Z"/>
  </g>
  <g>
    <polygon class="cls-1" points="80.39 110.96 80.39 41.03 138.51 70.96 242.36 16.6 274.64 0 274.66 69.7 173.76 124.18 138.51 142.8 80.39 110.96"/>
    <polygon class="cls-1" points="63.86 244.84 0 209.54 0 0 63.86 32.94 63.86 244.84"/>
    <path class="cls-1" d="M205.65,244.84v-112.77c22.55-12.88,44.55-24.16,68.94-35.85l.06,113.33-69,35.29Z"/>
  </g>
</svg>