<?xml version="1.0" encoding="UTF-8"?>
<svg id="Layer_1" data-name="Layer 1" xmlns="http://www.w3.org/2000/svg" viewBox="0 0 2030.96 800">
  <g>
    <polygon points="103.57 382.69 103.76 312.57 161.49 343.09 265.73 288.14 298.02 272.49 298.42 341.25 197.12 395.72 161.56 414.15 103.57 382.69"/>
    <polygon points="87.48 516.09 23.36 481.08 23.4 271.54 87.22 304.49 87.48 516.09"/>
    <path d="M229.31,517.53l-.3-113.92c22.55-12.88,44.55-24.16,68.94-35.85l.13,113.06-68.77,36.71Z"/>
  </g>
  <g>
    <path d="M473.02,438.27l-8.31-31.8c-1.33-5.42-2.29-11.2-2.29-14.33-2.41,4.94-4.94,9.76-11.44,20.96l-9.64,16.5c-4.94,8.79-9.03,10.12-15.78,10.12s-11.08-1.21-16.14-10.12l-10.72-19.27c-6.14-10.84-8.07-14.46-9.88-18.19-.6,3.85-1.57,8.67-2.89,13.73l-8.07,32.4h-27.34l19.51-69.5c2.41-8.43,8.55-12.53,15.66-12.53s11.8,3.73,15.18,9.52l13.25,22.16c7.47,12.41,10,16.74,11.92,20.72,1.93-3.98,4.46-8.19,11.8-20.6l13.25-22.28c3.25-5.54,7.95-9.52,15.3-9.52,6.87,0,13.13,4.1,15.54,12.53,6.38,23.13,12.53,46.38,18.91,69.5h-27.82Z"/>
    <path d="M574.81,439.59c-39.99,0-60.11-12.89-60.11-41.68s20.12-41.56,60.11-41.56,60.23,12.77,60.23,41.56-20.24,41.68-60.23,41.68ZM574.81,379.85c-24.09,0-32.28,2.05-32.28,18.07s8.19,18.19,32.28,18.19,32.4-2.29,32.4-18.19-8.19-18.07-32.4-18.07Z"/>
    <path d="M659.85,438.27v-50.23h27.95v27.1h26.98c12.65,0,21.68-4.7,21.68-17.95,0-10.96-9.52-16.02-21.68-16.02h-54.93l17.71-23.49h37.22c28.67,0,49.39,16.26,49.39,39.51s-20.96,41.07-49.39,41.07h-54.93Z"/>
    <path d="M867.39,357.68h28.07v45.41c0,24.33-16.98,36.5-51.19,36.5-39.39,0-56.37-12.17-56.37-36.5v-45.41h27.82v45.41c0,10.48,3.49,13.37,28.55,13.37,16.98,0,23.13-3.73,23.13-13.37v-45.41Z"/>
    <path d="M921.84,438.27v-80.58h27.82v57.46h61.19l-17.95,23.13h-71.07Z"/>
    <path d="M1109.75,357.68h28.07v45.41c0,24.33-16.98,36.5-51.19,36.5-39.39,0-56.37-12.17-56.37-36.5v-45.41h27.82v45.41c0,10.48,3.49,13.37,28.55,13.37,16.98,0,23.13-3.73,23.13-13.37v-45.41Z"/>
    <path d="M1159.38,438.27l17.95-23.13h60.83c3.61,0,5.66-1.33,5.66-4.22s-2.05-4.21-5.9-4.21h-45.53c-20.84,0-30.35-9.76-30.35-23.37,0-16.26,10.12-25.66,35.29-25.66h71.07l-17.95,23.49h-55.77c-3.73,0-5.66.96-5.66,3.86s1.93,3.97,5.66,3.97h45.77c19.51,0,30.23,7.59,30.23,22.28,0,16.62-7.95,26.98-32.88,26.98h-78.42Z"/>
  </g>
  <g>
    <path d="M1359.68,388.44c-3.08-3.95-7.47-6.07-16.09-6.07-7.08,0-12.96,1.45-12.96,6.02,0,3.42,3.18,4.38,14.75,5.45,10.65.96,19.85,1.25,19.85,10.02,0,9.2-10.12,11.37-18.79,11.37-11.85,0-18.41-4.05-21.49-9.11l3.9-1.78c3.42,4.34,8.14,7.04,17.69,7.04,7.85,0,13.83-1.83,13.83-7.13,0-4.14-3.61-4.96-15.66-6.07-10.55-1.01-18.89-1.45-18.89-9.35,0-8.43,9.78-10.36,18.02-10.36,11.42,0,17.01,3.71,19.81,8.24l-3.95,1.74Z"/>
    <path d="M1381.45,396.87c0-10.12,7.47-18.41,22.7-18.41s22.79,8.29,22.79,18.41-7.57,18.36-22.79,18.36-22.7-8.24-22.7-18.36ZM1422.08,396.87c0-8.29-6.12-14.5-17.93-14.5s-17.83,6.22-17.83,14.5,6.02,14.46,17.83,14.46,17.93-6.22,17.93-14.46Z"/>
    <path d="M1446.26,414.12v-34.46h31.71v3.9h-27.13v11.9h17.01v3.9h-17.01v14.75h-4.58Z"/>
    <path d="M1507.02,414.12v-30.55h-16.58v-3.9h37.68v3.9h-16.53v30.55h-4.58Z"/>
    <path d="M1540.8,379.66h5.06l11.28,27.42,10.55-27.42h2.89l10.5,27.32,11.28-27.32h4.72l-14.65,34.46h-2.89l-10.65-27.52-10.55,27.52h-2.89l-14.65-34.46Z"/>
    <path d="M1611.82,414.12h-4.96l18.94-34.46h3.18l18.94,34.46h-5.54l-5.01-9.4h-20.53l-5.01,9.4ZM1618.95,400.82h16.29l-8.14-15.23-8.14,15.23Z"/>
    <path d="M1702.84,414.12c-1.49.53-2.79.87-4.72.87-13.3,0-7.13-16.48-18.84-16.48h-9.98v15.61h-4.58v-34.46h23.23c7.71,0,13.16,3.18,13.16,9.4s-5.59,9.35-13.16,9.35h-.29v.1c5.83,3.57,4.67,12.24,11.37,12.24,1.11,0,2.6-.24,3.81-.58v3.95ZM1669.3,383.57v11.04h19.13c4.05,0,7.85-1.4,7.85-5.54s-3.81-5.49-7.85-5.49h-19.13Z"/>
    <path d="M1721.53,414.12v-34.46h31.71v3.9h-27.13v10.94h17.01v3.9h-17.01v11.8h29.35v3.9h-33.92Z"/>
    <path d="M1781.13,413.15c0,5.01-3.52,9.98-8.38,9.98v-2.6c1.88-.38,4.82-2.36,4.82-6.41h-5.01v-5.06h8.58v4.1Z"/>
    <path d="M1829.65,379.66h4.58v30.55h25.64v3.9h-30.21v-34.46Z"/>
    <path d="M1877.11,379.66h4.58v30.55h25.64v3.9h-30.21v-34.46Z"/>
    <path d="M1962.83,406.89c-2.55,2.75-7.85,8.34-20.29,8.34-15.13,0-22.65-8.24-22.65-18.36s7.52-18.41,22.79-18.41c12.58,0,17.68,5.59,19.56,7.42l-3.42,2.65c-4.14-3.37-7.95-6.17-16.43-6.17-11.85,0-17.68,6.26-17.68,14.46s6.02,14.5,17.97,14.5c9.01,0,12.96-3.52,16.72-7.08l3.42,2.65Z"/>
  </g>
</svg>